<?xml version="1.0" encoding="UTF-8" standalone="no"?>
<svg
   xmlns:dc="http://purl.org/dc/elements/1.1/"
   xmlns:cc="http://creativecommons.org/ns#"
   xmlns:rdf="http://www.w3.org/1999/02/22-rdf-syntax-ns#"
   xmlns:svg="http://www.w3.org/2000/svg"
   xmlns="http://www.w3.org/2000/svg"
   viewBox="0 0 579.57599 529.79333"
   height="529.79333"
   width="579.57599"
   xml:space="preserve"
   id="svg2"
   version="1.1"><metadata
     id="metadata8"><rdf:RDF><cc:Work
         rdf:about=""><dc:format>image/svg+xml</dc:format><dc:type
           rdf:resource="http://purl.org/dc/dcmitype/StillImage" /></cc:Work></rdf:RDF></metadata><defs
     id="defs6"><clipPath
       id="clipPath18"
       clipPathUnits="userSpaceOnUse"><path
         id="path16"
         d="M 0,397.345 H 434.682 V 0 H 0 Z" /></clipPath><clipPath
       id="clipPath26"
       clipPathUnits="userSpaceOnUse"><path
         id="path24"
         d="M 30.5897,223.673 H 85.7315 V 168.531 H 30.5897 Z" /></clipPath><clipPath
       id="clipPath86"
       clipPathUnits="userSpaceOnUse"><path
         id="path84"
         d="M 314.336,355.399 H 327.89 V 341.455 H 314.336 Z" /></clipPath><clipPath
       id="clipPath102"
       clipPathUnits="userSpaceOnUse"><path
         id="path100"
         d="M 59.6415,379.23 H 73.1952 V 365.285 H 59.6415 Z" /></clipPath><clipPath
       id="clipPath118"
       clipPathUnits="userSpaceOnUse"><path
         id="path116"
         d="M 6.74451,344.342 H 20.2983 V 330.397 H 6.74451 Z" /></clipPath><clipPath
       id="clipPath134"
       clipPathUnits="userSpaceOnUse"><path
         id="path132"
         d="m 179.108,253.914 h 13.554 v -13.945 h -13.554 z" /></clipPath><clipPath
       id="clipPath150"
       clipPathUnits="userSpaceOnUse"><path
         id="path148"
         d="m 392.538,288.191 h 13.553 v -13.944 h -13.553 z" /></clipPath><clipPath
       id="clipPath182"
       clipPathUnits="userSpaceOnUse"><path
         id="path180"
         d="m 233.165,246.684 h 179.72 V 66.9644 h -179.72 z" /></clipPath><clipPath
       id="clipPath390"
       clipPathUnits="userSpaceOnUse"><path
         id="path388"
         d="M 26.3753,313.451 H 86.0519 V 247.324 H 26.3753 Z" /></clipPath><clipPath
       id="clipPath414"
       clipPathUnits="userSpaceOnUse"><path
         id="path412"
         d="M 0,397.345 H 434.682 V 0 H 0 Z" /></clipPath><clipPath
       id="clipPath426"
       clipPathUnits="userSpaceOnUse"><path
         id="path424"
         d="M 95.9209,375.688 H 145.405 V 320.856 H 95.9209 Z" /></clipPath><clipPath
       id="clipPath446"
       clipPathUnits="userSpaceOnUse"><path
         id="path444"
         d="M 0,397.345 H 434.682 V 0 H 0 Z" /></clipPath><clipPath
       id="clipPath458"
       clipPathUnits="userSpaceOnUse"><path
         id="path456"
         d="m 341.848,270.911 h 44.566 v -49.383 h -44.566 z" /></clipPath><clipPath
       id="clipPath478"
       clipPathUnits="userSpaceOnUse"><path
         id="path476"
         d="M 0,397.345 H 434.682 V 0 H 0 Z" /></clipPath><clipPath
       id="clipPath490"
       clipPathUnits="userSpaceOnUse"><path
         id="path488"
         d="m 178.754,338.601 h 41.135 v -45.58 h -41.135 z" /></clipPath><clipPath
       id="clipPath510"
       clipPathUnits="userSpaceOnUse"><path
         id="path508"
         d="M 0,397.345 H 434.682 V 0 H 0 Z" /></clipPath><clipPath
       id="clipPath578"
       clipPathUnits="userSpaceOnUse"><path
         id="path576"
         d="m 250.582,379.23 h 41.749 v -46.261 h -41.749 z" /></clipPath><clipPath
       id="clipPath598"
       clipPathUnits="userSpaceOnUse"><path
         id="path596"
         d="M 0,397.345 H 434.682 V 0 H 0 Z" /></clipPath><clipPath
       id="clipPath610"
       clipPathUnits="userSpaceOnUse"><path
         id="path608"
         d="m 261.003,245.895 h 41.135 v -45.581 h -41.135 z" /></clipPath><clipPath
       id="clipPath634"
       clipPathUnits="userSpaceOnUse"><path
         id="path632"
         d="M 0,397.345 H 434.682 V 0 H 0 Z" /></clipPath></defs><g
     transform="matrix(1.3333333,0,0,-1.3333333,0,529.79333)"
     id="g10"><g
       id="g12"><g
         clip-path="url(#clipPath18)"
         id="g14"><g
           id="g20"><g
             id="g22" /><g
             id="g34"><g
               style="opacity:0.58000201"
               id="g32"
               clip-path="url(#clipPath26)"><g
                 id="g30"
                 transform="translate(75.7811,168.5312)"><path
                   id="path28"
                   style="fill:#96fffa;fill-opacity:1;fill-rule:nonzero;stroke:none"
                   d="m 0,0 h -35.241 c -5.473,0 -9.95,4.478 -9.95,9.95 v 35.241 c 0,5.473 4.477,9.951 9.95,9.951 H 0 c 5.473,0 9.95,-4.478 9.95,-9.951 V 9.95 C 9.95,4.478 5.473,0 0,0" /></g></g></g></g><g
           transform="translate(108.4232,240.4507)"
           id="g36"><path
             id="path38"
             style="fill:#fcddfc;fill-opacity:1;fill-rule:nonzero;stroke:none"
             d="m 0,0 h -32.594 c -5.176,0 -9.411,4.235 -9.411,9.411 v 34.075 c 0,5.176 4.235,9.411 9.411,9.411 H 0 c 5.176,0 9.411,-4.235 9.411,-9.411 V 9.411 C 9.411,4.235 5.176,0 0,0" /></g><g
           transform="translate(65.0392,331.1174)"
           id="g40"><path
             id="path42"
             style="fill:#fcddfc;fill-opacity:1;fill-rule:nonzero;stroke:none"
             d="m 0,0 h -16.297 c -2.588,0 -4.705,2.117 -4.705,4.705 v 17.038 c 0,2.588 2.117,4.705 4.705,4.705 H 0 c 2.588,0 4.705,-2.117 4.705,-4.705 V 4.705 C 4.705,2.117 2.588,0 0,0" /></g><g
           transform="translate(228.0378,194.6921)"
           id="g44"><path
             id="path46"
             style="fill:#fcddfc;fill-opacity:1;fill-rule:nonzero;stroke:none"
             d="m 0,0 h -16.297 c -2.588,0 -4.705,2.117 -4.705,4.705 v 17.038 c 0,2.588 2.117,4.705 4.705,4.705 H 0 c 2.588,0 4.705,-2.117 4.705,-4.705 V 4.705 C 4.705,2.117 2.588,0 0,0" /></g><g
           transform="translate(251.471,317.8932)"
           id="g48"><path
             id="path50"
             style="fill:#fcddfc;fill-opacity:1;fill-rule:nonzero;stroke:none"
             d="m 0,0 h -16.297 c -2.588,0 -4.705,2.117 -4.705,4.705 v 17.038 c 0,2.588 2.117,4.705 4.705,4.705 H 0 c 2.588,0 4.705,-2.117 4.705,-4.705 V 4.705 C 4.705,2.117 2.588,0 0,0" /></g><g
           transform="translate(397.4815,321.1661)"
           id="g52"><path
             id="path54"
             style="fill:#fcddfc;fill-opacity:1;fill-rule:nonzero;stroke:none"
             d="m 0,0 h -16.297 c -2.588,0 -4.705,2.117 -4.705,4.705 v 17.038 c 0,2.588 2.117,4.705 4.705,4.705 H 0 c 2.588,0 4.705,-2.117 4.705,-4.705 V 4.705 C 4.705,2.117 2.588,0 0,0" /></g><g
           transform="translate(27.0751,368.4507)"
           id="g56"><path
             id="path58"
             style="fill:#fcddfc;fill-opacity:1;fill-rule:nonzero;stroke:none"
             d="m 0,0 h -10.517 c -1.67,0 -3.037,1.366 -3.037,3.037 v 10.995 c 0,1.67 1.367,3.036 3.037,3.036 H 0 c 1.67,0 3.037,-1.366 3.037,-3.036 V 3.037 C 3.037,1.366 1.67,0 0,0" /></g><g
           transform="translate(175.5226,359.9166)"
           id="g60"><path
             id="path62"
             style="fill:#fcddfc;fill-opacity:1;fill-rule:nonzero;stroke:none"
             d="m 0,0 h -10.517 c -1.67,0 -3.037,1.366 -3.037,3.037 v 10.995 c 0,1.67 1.367,3.036 3.037,3.036 H 0 c 1.67,0 3.036,-1.366 3.036,-3.036 V 3.037 C 3.036,1.366 1.67,0 0,0" /></g><g
           transform="translate(56.2871,111.9644)"
           id="g64"><path
             id="path66"
             style="fill:#fcddfc;fill-opacity:1;fill-rule:nonzero;stroke:none"
             d="m 0,0 h -10.517 c -1.67,0 -3.037,1.366 -3.037,3.036 v 10.996 c 0,1.67 1.367,3.036 3.037,3.036 H 0 c 1.67,0 3.037,-1.366 3.037,-3.036 V 3.036 C 3.037,1.366 1.67,0 0,0" /></g><g
           transform="translate(389.573,36.8512)"
           id="g68"><path
             id="path70"
             style="fill:#fcddfc;fill-opacity:1;fill-rule:nonzero;stroke:none"
             d="m 0,0 h -10.517 c -1.67,0 -3.037,1.367 -3.037,3.037 v 10.995 c 0,1.67 1.367,3.036 3.037,3.036 H 0 c 1.67,0 3.037,-1.366 3.037,-3.036 V 3.037 C 3.037,1.367 1.67,0 0,0" /></g><g
           transform="translate(254.8125,77.4759)"
           id="g72"><path
             id="path74"
             style="fill:#fcddfc;fill-opacity:1;fill-rule:nonzero;stroke:none"
             d="m 0,0 h -10.517 c -1.67,0 -3.037,1.366 -3.037,3.036 v 10.996 c 0,1.67 1.367,3.036 3.037,3.036 H 0 c 1.67,0 3.037,-1.366 3.037,-3.036 V 3.036 C 3.037,1.366 1.67,0 0,0" /></g><g
           transform="translate(387.1089,282.4671)"
           id="g76"><path
             id="path78"
             style="fill:#fcddfc;fill-opacity:1;fill-rule:nonzero;stroke:none"
             d="m 0,0 h -8.592 c -1.365,0 -2.481,1.116 -2.481,2.481 v 8.983 c 0,1.364 1.116,2.48 2.481,2.48 H 0 c 1.364,0 2.481,-1.116 2.481,-2.48 V 2.481 C 2.481,1.116 1.364,0 0,0" /></g><g
           id="g80"><g
             id="g82" /><g
             id="g94"><g
               style="opacity:0.58000201"
               id="g92"
               clip-path="url(#clipPath86)"><g
                 id="g90"
                 transform="translate(325.4095,341.4547)"><path
                   id="path88"
                   style="fill:#96fffa;fill-opacity:1;fill-rule:nonzero;stroke:none"
                   d="m 0,0 h -8.592 c -1.365,0 -2.481,1.116 -2.481,2.481 v 8.983 c 0,1.364 1.116,2.48 2.481,2.48 H 0 c 1.364,0 2.481,-1.116 2.481,-2.48 V 2.481 C 2.481,1.116 1.364,0 0,0" /></g></g></g></g><g
           id="g96"><g
             id="g98" /><g
             id="g110"><g
               style="opacity:0.58000201"
               id="g108"
               clip-path="url(#clipPath102)"><g
                 id="g106"
                 transform="translate(70.7145,365.2854)"><path
                   id="path104"
                   style="fill:#96fffa;fill-opacity:1;fill-rule:nonzero;stroke:none"
                   d="m 0,0 h -8.592 c -1.365,0 -2.481,1.116 -2.481,2.481 v 8.983 c 0,1.364 1.116,2.48 2.481,2.48 H 0 c 1.364,0 2.481,-1.116 2.481,-2.48 V 2.481 C 2.481,1.116 1.364,0 0,0" /></g></g></g></g><g
           id="g112"><g
             id="g114" /><g
             id="g126"><g
               style="opacity:0.58000201"
               id="g124"
               clip-path="url(#clipPath118)"><g
                 id="g122"
                 transform="translate(17.8175,330.3974)"><path
                   id="path120"
                   style="fill:#96fffa;fill-opacity:1;fill-rule:nonzero;stroke:none"
                   d="m 0,0 h -8.592 c -1.365,0 -2.481,1.116 -2.481,2.481 v 8.983 c 0,1.364 1.116,2.48 2.481,2.48 H 0 c 1.364,0 2.481,-1.116 2.481,-2.48 V 2.481 C 2.481,1.116 1.364,0 0,0" /></g></g></g></g><g
           id="g128"><g
             id="g130" /><g
             id="g142"><g
               style="opacity:0.58000201"
               id="g140"
               clip-path="url(#clipPath134)"><g
                 id="g138"
                 transform="translate(190.1808,239.9694)"><path
                   id="path136"
                   style="fill:#96fffa;fill-opacity:1;fill-rule:nonzero;stroke:none"
                   d="m 0,0 h -8.592 c -1.365,0 -2.481,1.116 -2.481,2.481 v 8.983 c 0,1.364 1.116,2.48 2.481,2.48 H 0 c 1.365,0 2.481,-1.116 2.481,-2.48 V 2.481 C 2.481,1.116 1.365,0 0,0" /></g></g></g></g><g
           id="g144"><g
             id="g146" /><g
             id="g158"><g
               style="opacity:0.58000201"
               id="g156"
               clip-path="url(#clipPath150)"><g
                 id="g154"
                 transform="translate(403.6105,274.2472)"><path
                   id="path152"
                   style="fill:#96fffa;fill-opacity:1;fill-rule:nonzero;stroke:none"
                   d="m 0,0 h -8.592 c -1.365,0 -2.481,1.116 -2.481,2.481 v 8.983 c 0,1.364 1.116,2.48 2.481,2.48 H 0 c 1.365,0 2.481,-1.116 2.481,-2.48 V 2.481 C 2.481,1.116 1.365,0 0,0" /></g></g></g></g><g
           transform="translate(341.4772,322.5833)"
           id="g160"><path
             id="path162"
             style="fill:#fcddfc;fill-opacity:1;fill-rule:nonzero;stroke:none"
             d="m 0,0 h -10.517 c -1.67,0 -3.037,1.366 -3.037,3.036 v 10.996 c 0,1.67 1.367,3.036 3.037,3.036 H 0 c 1.67,0 3.037,-1.366 3.037,-3.036 V 3.036 C 3.037,1.366 1.67,0 0,0" /></g><g
           transform="translate(175.0548,307.2768)"
           id="g164"><path
             id="path166"
             style="fill:#fcddfc;fill-opacity:1;fill-rule:nonzero;stroke:none"
             d="m 0,0 h -10.517 c -1.67,0 -3.037,1.367 -3.037,3.037 v 10.995 c 0,1.67 1.367,3.036 3.037,3.036 H 0 c 1.67,0 3.037,-1.366 3.037,-3.036 V 3.037 C 3.037,1.367 1.67,0 0,0" /></g><g
           transform="translate(202.2287,262.6557)"
           id="g168"><path
             id="path170"
             style="fill:#fcddfc;fill-opacity:1;fill-rule:nonzero;stroke:none"
             d="m 0,0 h -10.517 c -1.67,0 -3.037,1.366 -3.037,3.037 v 10.995 c 0,1.67 1.367,3.036 3.037,3.036 H 0 c 1.67,0 3.037,-1.366 3.037,-3.036 V 3.037 C 3.037,1.366 1.67,0 0,0" /></g><g
           transform="translate(418.1434,245.5874)"
           id="g172"><path
             id="path174"
             style="fill:#fcddfc;fill-opacity:1;fill-rule:nonzero;stroke:none"
             d="m 0,0 h -10.517 c -1.67,0 -3.037,1.366 -3.037,3.036 v 10.996 c 0,1.67 1.367,3.036 3.037,3.036 H 0 c 1.67,0 3.037,-1.366 3.037,-3.036 V 3.036 C 3.037,1.366 1.67,0 0,0" /></g><g
           id="g176"><g
             id="g178" /><g
             id="g190"><g
               style="opacity:0.58000201"
               id="g188"
               clip-path="url(#clipPath182)"><g
                 id="g186"
                 transform="translate(412.8848,156.8244)"><path
                   id="path184"
                   style="fill:#96fffa;fill-opacity:1;fill-rule:nonzero;stroke:none"
                   d="m 0,0 c 0,-49.628 -40.232,-89.86 -89.86,-89.86 -49.628,0 -89.86,40.232 -89.86,89.86 0,49.628 40.232,89.86 89.86,89.86 C -40.232,89.86 0,49.628 0,0" /></g></g></g></g><g
           transform="translate(90.0131,120.5542)"
           id="g192"><path
             id="path194"
             style="fill:#ccc2fe;fill-opacity:1;fill-rule:nonzero;stroke:none"
             d="m 0,0 c -10.586,11.041 -31.296,28.689 -21.645,46.006 11.839,21.245 52.45,14.861 71.191,9.46 C 66.593,50.554 83.034,40.512 79.229,20.234 77.635,11.74 70.62,6.003 68.387,-1.95 64.586,-0.58 59.243,-1.642 55.064,-1.424 56.518,4.175 55.538,10.458 51.159,14.498 44.603,20.547 26.389,29.099 17.177,25.934 4.63,21.624 20.852,1.492 24.949,-3.912 19.461,-2.916 14.155,-4.296 8.5,-4" /></g><g
           transform="translate(76.0154,111.9257)"
           id="g196"><path
             id="path198"
             style="fill:#ccc2fe;fill-opacity:1;fill-rule:nonzero;stroke:none"
             d="m 0,0 h 105.583 c 2.357,0 4.286,1.929 4.286,4.286 0,2.358 -1.929,4.287 -4.286,4.287 H 0 C -2.357,8.573 -4.286,6.644 -4.286,4.286 -4.286,1.929 -2.357,0 0,0" /></g><g
           transform="translate(165.5314,21.1854)"
           id="g200"><path
             id="path202"
             style="fill:#ccc2fe;fill-opacity:1;fill-rule:nonzero;stroke:none"
             d="m 0,0 v 0 c 0.733,0 1.333,0.6 1.333,1.333 v 92.36 c 0,0.734 -0.6,1.334 -1.333,1.334 -0.733,0 -1.333,-0.6 -1.333,-1.334 V 1.333 C -1.333,0.6 -0.733,0 0,0" /></g><g
           transform="translate(108.9238,21.1854)"
           id="g204"><path
             id="path206"
             style="fill:#ccc2fe;fill-opacity:1;fill-rule:nonzero;stroke:none"
             d="m 0,0 v 0 c 0.733,0 1.333,0.6 1.333,1.333 v 92.36 c 0,0.734 -0.6,1.334 -1.333,1.334 -0.733,0 -1.333,-0.6 -1.333,-1.334 V 1.333 C -1.333,0.6 -0.733,0 0,0" /></g><g
           transform="translate(134.5276,18.826)"
           id="g208"><path
             id="path210"
             style="fill:#ccc2fe;fill-opacity:1;fill-rule:nonzero;stroke:none"
             d="m 0,0 v 0 c 0.733,0 1.333,0.6 1.333,1.333 v 92.36 c 0,0.734 -0.6,1.334 -1.333,1.334 -0.733,0 -1.333,-0.6 -1.333,-1.334 V 1.333 C -1.333,0.6 -0.733,0 0,0" /></g><g
           transform="translate(82.053,21.1854)"
           id="g212"><path
             id="path214"
             style="fill:#ccc2fe;fill-opacity:1;fill-rule:nonzero;stroke:none"
             d="m 0,0 v 0 c 0.733,0 1.333,0.6 1.333,1.333 v 92.36 c 0,0.734 -0.6,1.334 -1.333,1.334 -0.733,0 -1.333,-0.6 -1.333,-1.334 V 1.333 C -1.333,0.6 -0.733,0 0,0" /></g><g
           transform="translate(288.4584,147.9744)"
           id="g216"><path
             id="path218"
             style="fill:#eef4f2;fill-opacity:1;fill-rule:nonzero;stroke:none"
             d="M 0,0 1.084,-1.983 3.067,-3.067 1.084,-4.152 0,-6.134 l -1.084,1.982 -1.983,1.085 1.983,1.084 z" /></g><g
           transform="translate(204.2308,128.8581)"
           id="g220"><path
             id="path222"
             style="fill:#ccc2fe;fill-opacity:1;fill-rule:nonzero;stroke:none"
             d="m 0,0 -9.012,-110.032 16,105.498 h 110 l 22.5,-105.498 -15.5,103.998 7,0.5 28,-104.498 L 132.179,0 Z" /></g><g
           transform="translate(204.2308,128.8581)"
           id="g224"><path
             id="path226"
             style="fill:none;stroke:#ccc2fe;stroke-width:2;stroke-linecap:round;stroke-linejoin:round;stroke-miterlimit:10;stroke-dasharray:none;stroke-opacity:1"
             d="m 0,0 -9.012,-110.032 16,105.498 h 110 l 22.5,-105.498 -15.5,103.998 7,0.5 28,-104.498 L 132.179,0 Z" /></g><g
           transform="translate(214.4686,122.8243)"
           id="g228"><path
             id="path230"
             style="fill:#ccc2fe;fill-opacity:1;fill-rule:nonzero;stroke:none"
             d="M 0,0 16,-103.998 6,0 Z" /></g><g
           transform="translate(214.4686,122.8243)"
           id="g232"><path
             id="path234"
             style="fill:none;stroke:#ccc2fe;stroke-width:2;stroke-linecap:round;stroke-linejoin:round;stroke-miterlimit:10;stroke-dasharray:none;stroke-opacity:1"
             d="M 0,0 16,-103.998 6,0 Z" /></g><g
           transform="translate(336.4099,128.8581)"
           id="g236"><path
             id="path238"
             style="fill:#8b77e8;fill-opacity:1;fill-rule:nonzero;stroke:none"
             d="m 0,0 h -138.008 c -1.751,0 -3.183,0.873 -3.183,1.94 0,1.067 1.432,1.94 3.183,1.94 H 0 C 1.751,3.88 3.183,3.007 3.183,1.94 3.183,0.873 1.751,0 0,0" /></g><g
           transform="translate(269.8826,131.7277)"
           id="g240"><path
             id="path242"
             style="fill:#b3a4f5;fill-opacity:1;fill-rule:nonzero;stroke:none"
             d="m 0,0 h -27.799 c -1.642,0 -2.985,1.343 -2.985,2.985 0,1.642 1.343,2.986 2.985,2.986 H 0 C 1.642,5.971 2.985,4.627 2.985,2.985 2.985,1.343 1.642,0 0,0" /></g><g
           transform="translate(329.7971,132.1534)"
           id="g244"><path
             id="path246"
             style="fill:#ccc2fe;fill-opacity:1;fill-rule:nonzero;stroke:none"
             d="m 0,0 h -61.442 c -1.516,0 -2.757,1.241 -2.757,2.757 V 47.59 c 0,1.516 1.241,2.757 2.757,2.757 H 0 c 1.516,0 2.757,-1.241 2.757,-2.757 V 2.757 C 2.757,1.241 1.516,0 0,0" /></g><g
           transform="translate(310.4056,156.6871)"
           id="g248"><path
             id="path250"
             style="fill:#eef4f2;fill-opacity:1;fill-rule:nonzero;stroke:none"
             d="m 0,0 c 0,-3.695 -2.995,-6.69 -6.69,-6.69 -3.695,0 -6.69,2.995 -6.69,6.69 0,3.695 2.995,6.69 6.69,6.69 C -2.995,6.69 0,3.695 0,0" /></g><g
           transform="translate(155.1532,116.5116)"
           id="g252"><path
             id="path254"
             style="fill:#745cd4;fill-opacity:1;fill-rule:nonzero;stroke:none"
             d="m 0,0 h -7.523 c -6.6,0 -12,5.4 -12,12 v 36 c 0,6.6 5.4,12 12,12 H 0 C 6.6,60 12,54.6 12,48 V 12 C 12,5.4 6.6,0 0,0" /></g><g
           transform="translate(120.7456,200.5121)"
           id="g256"><path
             id="path258"
             style="fill:#eae9c5;fill-opacity:1;fill-rule:nonzero;stroke:none"
             d="m 0,0 c -1.351,1.882 -2.732,3.766 -4.078,5.701 -4.647,6.681 -11.812,16.061 -10.129,24.751 0.662,0.359 1.375,0.659 2.123,0.908 0.24,0.083 0.498,0.166 0.774,0.249 0.008,0 0.008,0.009 0.017,0.008 1.174,0.365 2.577,0.752 4.06,1.103 2.877,0.694 6.043,1.26 8.395,1.297 0.495,0.008 1.703,0.355 3.1,0.83 2.356,0.782 5.223,1.896 5.955,2.278 2.828,1.466 5.159,3.256 7.041,5.151 4.771,4.787 6.717,10.221 6.762,12.744 0.044,1.463 0.234,3.651 0.657,6.018 L 39.125,60.782 C 39.109,59.371 39.05,58.084 39.05,57.12 c 0.011,-5.749 3.129,-10.791 7.228,-14.86 4.959,-4.916 11.358,-8.395 15.423,-9.948 1.139,-0.082 2.613,-0.213 4.227,-0.399 1.659,-0.179 3.467,-0.421 5.194,-0.706 0.696,-0.108 1.375,-0.226 2.026,-0.36 0.327,-0.058 0.644,-0.125 0.952,-0.192 h 0.017 c 0.159,-0.038 0.309,-0.067 0.458,-0.105 0.264,-0.057 0.528,-0.123 0.775,-0.189 0.035,0 0.061,-0.01 0.088,-0.019 0.281,-0.075 0.545,-0.15 0.8,-0.224 0.123,-0.029 0.246,-0.066 0.369,-0.112 0.247,-0.075 0.475,-0.158 0.686,-0.231 1.835,-0.69 3.452,-1.674 4.576,-3.114 0.026,-0.026 0.043,-0.044 0.052,-0.062 0.673,-0.888 1.158,-1.94 1.418,-3.197 0.648,-3.281 0.18,-7.164 0.447,-10.998 C 83.947,10.044 73.122,4.908 68.123,2.184 67.15,1.649 66.399,1.215 65.996,0.907 64.069,-0.549 62.176,-2.102 60.378,-3.752 59.947,-4.139 59.515,-4.543 59.101,-4.948 54.288,-9.621 50.292,-15.045 48.347,-21.39 c -0.103,-0.349 -0.216,-0.732 -0.312,-1.151 -0.038,-0.14 -0.067,-0.279 -0.105,-0.428 -0.029,-0.139 -0.067,-0.288 -0.097,-0.436 -0.067,-0.297 -0.134,-0.611 -0.193,-0.934 -0.477,-2.411 -0.876,-5.409 -1.206,-8.532 -0.055,-0.586 -0.119,-1.19 -0.174,-1.785 l -30.619,0.543 c -0.008,0.57 -0.024,1.14 -0.032,1.701 -0.046,1.368 -0.101,2.71 -0.193,4 -0.047,0.807 -0.113,1.588 -0.196,2.352 -0.021,0.28 -0.052,0.553 -0.091,0.825 -0.054,0.448 -0.108,0.878 -0.171,1.309 -0.039,0.281 -0.087,0.562 -0.135,0.835 -0.048,0.272 -0.097,0.536 -0.154,0.8 -0.048,0.264 -0.105,0.519 -0.163,0.774 -0.057,0.246 -0.115,0.493 -0.181,0.731 -1.391,5.203 -4.154,9.853 -7.632,14.007 C 4.661,-4.353 2.386,-2.098 0,0" /></g><g
           transform="translate(103.4696,229.2854)"
           id="g260"><path
             id="path262"
             style="fill:#eae9c5;fill-opacity:1;fill-rule:nonzero;stroke:none"
             d="m 0,0 c 0.811,1.689 2.493,3.314 5.605,3.845 4.38,0.746 8.855,1.173 13.17,2.111 0.74,0.153 1.464,0.33 2.188,0.523 0.997,0.26 1.977,0.559 2.95,0.906 4.906,1.751 10.422,5.336 13.903,9.884 0.033,0.042 0.062,0.087 0.094,0.13 l 23.779,-0.422 c 0.035,-0.044 0.067,-0.09 0.103,-0.134 0.945,-1.189 2.001,-2.308 3.135,-3.366 0.592,-0.541 1.193,-1.075 1.811,-1.577 1.211,-1.003 2.474,-1.936 3.739,-2.791 C 70.578,9.052 70.67,8.987 70.762,8.922 71.273,8.588 71.784,8.262 72.296,7.944 72.438,7.863 72.572,7.773 72.715,7.691 73.227,7.382 73.73,7.087 74.234,6.809 74.326,6.76 74.418,6.703 74.51,6.654 75.098,6.327 75.686,6.015 76.257,5.728 76.358,5.678 76.442,5.63 76.534,5.588 76.534,5.58 76.543,5.58 76.543,5.58 77.005,5.358 77.45,5.136 77.896,4.938 77.921,4.922 77.946,4.914 77.972,4.905 78.106,4.832 78.249,4.774 78.383,4.708 78.762,4.543 79.132,4.378 79.485,4.229 79.637,4.171 79.78,4.105 79.923,4.047 80.31,3.89 80.689,3.74 81.051,3.607 81.219,3.541 81.388,3.506 81.575,3.495 82.743,3.411 84.199,3.282 85.79,3.111 87.55,2.93 89.47,2.689 91.296,2.404 92.04,2.288 92.758,2.164 93.451,2.041 93.797,1.979 94.135,1.91 94.481,1.84 94.65,1.805 94.803,1.779 94.963,1.737 95.242,1.684 95.529,1.616 95.79,1.548 95.824,1.547 95.849,1.539 95.883,1.53 c 0.295,-0.076 0.574,-0.152 0.844,-0.229 0.135,-0.026 0.261,-0.06 0.396,-0.11 0.262,-0.076 0.506,-0.159 0.725,-0.234 1.946,-0.692 3.666,-1.673 4.861,-3.112 0.025,-0.032 0.041,-0.048 0.058,-0.064 0.157,-0.201 0.298,-0.41 0.438,-0.618 0.05,-0.072 0.091,-0.152 0.132,-0.224 0.099,-0.153 0.181,-0.312 0.263,-0.472 0.04,-0.088 0.081,-0.168 0.122,-0.248 0.082,-0.183 0.155,-0.367 0.228,-0.55 0.12,-0.351 0.241,-0.71 0.319,-1.091 0.695,-3.276 0.201,-7.164 0.488,-10.994 0.007,-0.096 -0.012,-0.19 -0.039,-0.293 -0.009,-0.031 -0.018,-0.055 -0.027,-0.078 -0.027,-0.095 -0.071,-0.181 -0.132,-0.275 -0.009,-0.016 -0.017,-0.032 -0.026,-0.055 -0.07,-0.118 -0.166,-0.235 -0.27,-0.36 -0.008,-0.008 -0.017,-0.015 -0.025,-0.023 -2.052,-2.364 -9.824,-5.996 -14.683,-8.413 -0.128,-0.069 -0.257,-0.129 -0.385,-0.191 -0.102,-0.053 -0.197,-0.099 -0.291,-0.145 -0.256,-0.13 -0.496,-0.252 -0.727,-0.375 -1.035,-0.528 -1.832,-0.965 -2.261,-1.275 -2.044,-1.453 -4.047,-3.001 -5.951,-4.646 -0.456,-0.388 -0.921,-0.792 -1.352,-1.196 -5.103,-4.67 -9.338,-10.091 -11.394,-16.431 -0.108,-0.346 -0.233,-0.732 -0.334,-1.15 -0.037,-0.142 -0.073,-0.284 -0.11,-0.426 -0.028,-0.142 -0.073,-0.292 -0.101,-0.442 -0.073,-0.291 -0.147,-0.607 -0.203,-0.931 -0.502,-2.414 -0.929,-5.409 -1.273,-8.531 -0.053,-0.593 -0.124,-1.194 -0.185,-1.787 -0.197,-1.961 -0.368,-3.93 -0.512,-5.796 -0.253,-3.219 -0.433,-6.147 -0.539,-8.252 0.021,-0.277 0.033,-0.555 0.027,-0.84 l -0.01,-0.594 c -0.12,-6.658 -6.05,-12.002 -13.168,-11.876 l -7.356,0.13 c -6.119,0.109 -11.052,4.877 -10.949,10.602 0,0 0.022,1.188 0.013,1.188 -0.03,1.101 -0.042,2.329 -0.035,3.676 0.007,1.813 0.035,3.809 0.055,5.875 0.021,2.107 0.036,4.301 -0.01,6.464 -0.015,0.57 -0.03,1.141 -0.037,1.703 -0.052,1.363 -0.112,2.711 -0.208,3.996 -0.053,0.809 -0.124,1.594 -0.212,2.356 -0.029,0.278 -0.057,0.555 -0.095,0.825 -0.06,0.445 -0.12,0.882 -0.188,1.31 -0.038,0.278 -0.092,0.564 -0.146,0.835 -0.046,0.27 -0.101,0.532 -0.164,0.802 -0.046,0.263 -0.109,0.517 -0.172,0.772 -0.064,0.247 -0.119,0.493 -0.191,0.732 -1.949,6.577 -6.675,11.532 -11.77,16.216 -4.828,4.442 -9.264,9.518 -12.836,14.983 C 3.639,-13.973 -2.414,-5.066 0,0" /></g><g
           transform="translate(134.5277,177.3243)"
           id="g264"><path
             id="path266"
             style="fill:#745cd4;fill-opacity:1;fill-rule:nonzero;stroke:none"
             d="m 0,0 c 0.047,-0.316 0.094,-0.64 0.126,-0.959 0.07,-0.58 0.131,-1.169 0.192,-1.77 0.038,-0.364 0.067,-0.739 0.097,-1.115 0.089,-1.029 0.161,-2.089 0.215,-3.181 0.097,-1.736 0.158,-3.555 0.211,-5.396 0.007,-0.76 0.022,-1.531 0.038,-2.301 0.046,-2.921 0.032,-5.884 0.01,-8.729 -0.02,-2.791 -0.048,-5.486 -0.056,-7.935 -0.007,-1.818 0.005,-3.477 0.036,-4.964 0.009,0 -0.013,-1.604 -0.013,-1.604 -0.105,-7.732 4.909,-14.171 11.129,-14.318 l 7.479,-0.176 c 7.236,-0.171 13.264,7.046 13.386,16.039 l 0.011,0.802 c 0.005,0.385 -0.007,0.76 -0.028,1.135 0.108,2.842 0.291,6.796 0.548,11.143 0.147,2.521 0.321,5.18 0.52,7.829 0.063,0.8 0.134,1.612 0.188,2.412 0.351,4.217 0.785,8.261 1.294,11.522 0.058,0.437 0.133,0.864 0.207,1.258 0.015,0.104 0.034,0.205 0.053,0.308 z" /></g><g
           transform="translate(137.9103,242.5767)"
           id="g268"><path
             id="path270"
             style="fill:#b3a4f5;fill-opacity:1;fill-rule:nonzero;stroke:none"
             d="m 0,0 c 3.437,-3.519 8.545,-5.785 14.27,-5.887 6.002,-0.106 11.406,2.186 14.973,5.873 -4.13,4.106 -7.272,9.194 -7.283,14.996 0,0.973 0.059,2.271 0.076,3.695 L 7.477,18.935 C 7.05,16.546 6.859,14.339 6.815,12.862 6.769,10.316 4.808,4.832 0,0" /></g><g
           transform="translate(183.0517,211.6625)"
           id="g272"><path
             id="path274"
             style="fill:#eae9c5;fill-opacity:1;fill-rule:nonzero;stroke:none"
             d="m 0,0 18.507,-41.553 c 2.898,-6.506 10.627,-9.474 17.19,-6.602 6.557,2.87 9.557,10.536 6.66,17.042 L 23.85,10.439 c -1.75,3.929 -5.272,6.559 -9.23,7.4 -0.028,0.006 -0.056,0.01 -0.083,0.016 -2.156,0.444 -4.437,0.366 -6.634,-0.341 L 7.887,17.507 C 7.475,17.372 7.065,17.219 6.66,17.041 3.381,15.606 0.991,12.969 -0.215,9.882 -0.484,9.193 -0.696,8.476 -0.841,7.744 -1.361,5.217 -1.123,2.522 0,0" /></g><g
           transform="translate(207.7005,184.6824)"
           id="g276"><path
             id="path278"
             style="fill:#eae9c5;fill-opacity:1;fill-rule:nonzero;stroke:none"
             d="m 0,0 c 6.912,3.271 15.19,0.368 18.49,-6.484 3.299,-6.852 0.371,-15.058 -6.54,-18.33 -1.953,-0.924 -4.013,-1.339 -6.04,-1.328 l 0.011,-0.05 -43.335,-6.259 -3.277,6.803 37.953,23.922 C -1.91,-1.063 -1.003,-0.475 0,0" /></g><g
           transform="translate(178.8202,164.6735)"
           id="g280"><path
             id="path282"
             style="fill:#eae9c5;fill-opacity:1;fill-rule:nonzero;stroke:none"
             d="M 0,0 C 2.015,-1.995 2.778,-4.742 2.077,-8.136 1.874,-9.118 1.592,-10.081 1.26,-11.028 l -9.794,-1.414 -3.276,6.803 10.28,6.48 C -1.01,0.575 -0.5,0.294 0,0" /></g><g
           transform="translate(168.8076,158.7132)"
           id="g284"><path
             id="path286"
             style="fill:#ccc2fe;fill-opacity:1;fill-rule:nonzero;stroke:none"
             d="m 0,0 1.456,-5.861 -16.905,-6.194 -10.853,1.748 -0.812,4.278 10.967,1.129 8.179,4.121 -4.959,0.778 -6.944,-1.715 -1.014,2.143 10.138,2.992 z" /></g><g
           transform="translate(104.9019,230.2476)"
           id="g288"><path
             id="path290"
             style="fill:#eae9c5;fill-opacity:1;fill-rule:nonzero;stroke:none"
             d="m 0,0 -40.047,-22.07 c -6.27,-3.455 -8.545,-11.357 -5.06,-17.573 3.483,-6.211 11.457,-8.472 17.727,-5.017 l 40.047,22.07 c 3.786,2.087 6.106,5.804 6.589,9.788 0.004,0.028 0.005,0.056 0.009,0.083 0.248,2.17 -0.039,4.414 -0.949,6.518 l -0.009,0.016 c -0.173,0.394 -0.365,0.785 -0.58,1.169 -1.741,3.105 -4.609,5.223 -7.82,6.132 C 9.19,1.319 8.451,1.462 7.702,1.539 5.116,1.82 2.431,1.339 0,0" /></g><g
           transform="translate(80.0545,203.4472)"
           id="g292"><path
             id="path294"
             style="fill:#eae9c5;fill-opacity:1;fill-rule:nonzero;stroke:none"
             d="m 0,0 c 3.918,-6.524 1.759,-14.962 -4.822,-18.846 -6.581,-3.884 -15.092,-1.744 -19.01,4.78 -1.107,1.843 -1.712,3.839 -1.887,5.841 l -0.049,-0.016 -10.25,42.209 6.535,3.857 L -1.984,2.546 C -1.242,1.789 -0.568,0.946 0,0" /></g><g
           transform="translate(57.3153,230.1286)"
           id="g296"><path
             id="path298"
             style="fill:#eae9c5;fill-opacity:1;fill-rule:nonzero;stroke:none"
             d="m 0,0 c -1.82,-2.171 -4.51,-3.176 -7.982,-2.794 -1.006,0.111 -1.998,0.3 -2.98,0.541 l -2.317,9.54 6.535,3.857 7.449,-9.557 C 0.485,1.05 0.249,0.521 0,0" /></g><g
           transform="translate(50.4127,239.4683)"
           id="g300"><path
             id="path302"
             style="fill:#ccc2fe;fill-opacity:1;fill-rule:nonzero;stroke:none"
             d="m 0,0 -5.754,-1.974 -7.768,16.123 0.764,10.874 4.222,1.193 2.138,-10.724 4.887,-7.698 0.328,4.967 -2.358,6.698 2.06,1.198 3.933,-9.734 z" /></g><g
           transform="translate(124.5558,235.7444)"
           id="g304"><path
             id="path306"
             style="fill:#d3d1a5;fill-opacity:1;fill-rule:nonzero;stroke:none"
             d="m 0,0 53.376,-0.947 0.002,0.099 c -0.089,0.042 -0.169,0.093 -0.266,0.144 -0.548,0.297 -1.113,0.619 -1.676,0.957 -0.089,0.05 -0.178,0.109 -0.266,0.16 C 50.686,0.701 50.203,1.005 49.712,1.325 49.575,1.409 49.447,1.502 49.31,1.586 48.819,1.915 48.329,2.252 47.838,2.597 47.75,2.664 47.661,2.731 47.564,2.79 46.351,3.673 45.139,4.638 43.977,5.676 43.384,6.195 42.807,6.747 42.239,7.306 41.151,8.4 40.138,9.559 39.232,10.789 L 16.203,11.197 C 12.853,6.482 7.549,2.762 2.834,0.942 1.9,0.581 0.958,0.27 0,0" /></g><g
           transform="translate(122.6447,235.216)"
           id="g308"><path
             id="path310"
             style="fill:#d3d1a5;fill-opacity:1;fill-rule:nonzero;stroke:none"
             d="m 0,0 c 0.709,0.154 1.402,0.331 2.095,0.525 0.954,0.26 1.893,0.561 2.824,0.908 2.301,0.86 4.741,2.164 7.025,3.802 L 47.599,4.602 c 0.627,-0.489 1.26,-0.961 1.895,-1.409 0.096,-0.057 0.184,-0.122 0.272,-0.187 0.489,-0.333 0.978,-0.659 1.468,-0.976 0.136,-0.082 0.264,-0.171 0.401,-0.253 0.489,-0.31 0.971,-0.603 1.453,-0.881 0.088,-0.049 0.176,-0.106 0.265,-0.155 0.562,-0.327 1.124,-0.638 1.671,-0.925 0.096,-0.049 0.177,-0.098 0.265,-0.139 0,-0.008 0.008,-0.008 0.008,-0.008 0.443,-0.222 0.869,-0.444 1.295,-0.641 0.024,-0.016 0.048,-0.025 0.073,-0.033 -0.584,0.066 -1.175,0.108 -1.775,0.142 -14.351,0.706 -26.644,-9.578 -28.336,-23.29 l -0.397,0.023 C 24.798,-11.33 14.044,-1.049 0.48,-0.381 0.277,-0.369 0.075,-0.358 -0.12,-0.37 -0.085,-0.244 -0.051,-0.118 0,0" /></g><g
           transform="translate(151.3413,190.9902)"
           id="g312"><path
             id="path314"
             style="fill:#4a3e93;fill-opacity:1;fill-rule:nonzero;stroke:none"
             d="m 0,0 v 0 c 0.879,-0.016 1.623,1.422 1.655,3.195 l 0.801,44.594 c 0.032,1.773 -0.66,3.236 -1.539,3.252 -0.879,0.015 -1.623,-1.423 -1.655,-3.196 L -1.539,3.251 C -1.571,1.479 -0.879,0.015 0,0" /></g><g
           transform="translate(152.3114,239.126)"
           id="g316"><path
             id="path318"
             style="fill:#4a3e93;fill-opacity:1;fill-rule:nonzero;stroke:none"
             d="M 0,0 0.324,-0.006 C 2.138,-0.038 3.648,1.42 3.681,3.234 3.714,5.049 2.256,6.56 0.441,6.592 L 0.117,6.598 C -1.697,6.63 -3.208,5.173 -3.241,3.359 v 0 C -3.273,1.544 -1.815,0.032 0,0" /></g><g
           transform="translate(161.8588,259.752)"
           id="g320"><path
             id="path322"
             style="fill:#b3a4f5;fill-opacity:1;fill-rule:nonzero;stroke:none"
             d="m 0,0 0.581,-0.021 c 1.261,-0.046 2.331,0.86 2.377,2.014 L 3.121,6.042 C 3.168,7.196 2.174,8.177 0.913,8.223 L 0.332,8.244 C -0.929,8.29 -1.999,7.383 -2.045,6.23 L -2.209,2.181 C -2.255,1.027 -1.261,0.046 0,0" /></g><g
           transform="translate(142.4074,260.7285)"
           id="g324"><path
             id="path326"
             style="fill:#b3a4f5;fill-opacity:1;fill-rule:nonzero;stroke:none"
             d="m 0,0 0.581,-0.021 c 1.261,-0.046 2.331,0.86 2.377,2.014 L 3.121,6.042 C 3.168,7.196 2.174,8.177 0.913,8.223 L 0.332,8.244 C -0.929,8.29 -1.999,7.383 -2.045,6.23 L -2.208,2.181 C -2.255,1.027 -1.261,0.046 0,0" /></g><g
           transform="translate(151.0458,250.7466)"
           id="g328"><path
             id="path330"
             style="fill:#ccc2fe;fill-opacity:1;fill-rule:nonzero;stroke:none"
             d="m 0,0 v 0 c 4.939,-0.179 9.129,3.37 9.311,7.888 l 0.68,16.89 c 0.182,4.518 -3.711,8.362 -8.65,8.541 -4.939,0.179 -9.129,-3.37 -9.311,-7.888 L -8.65,8.541 C -8.832,4.023 -4.939,0.179 0,0" /></g><g
           transform="translate(139.054,246.6844)"
           id="g332"><path
             id="path334"
             style="fill:#eae9c5;fill-opacity:1;fill-rule:nonzero;stroke:none"
             d="m 0,0 c 0.02,-4.448 2.911,-8.046 6.476,-8.046 3.566,0 6.457,3.598 6.477,8.046 z" /></g><g
           transform="translate(152.0067,246.6844)"
           id="g336"><path
             id="path338"
             style="fill:#eae9c5;fill-opacity:1;fill-rule:nonzero;stroke:none"
             d="m 0,0 c 0.02,-4.448 2.911,-8.046 6.476,-8.046 3.566,0 6.457,3.598 6.477,8.046 z" /></g><g
           transform="translate(155.5658,258.2788)"
           id="g340"><path
             id="path342"
             style="fill:#4a3e93;fill-opacity:1;fill-rule:nonzero;stroke:none"
             d="m 0,0 c 0,-1.34 -1.087,-2.427 -2.427,-2.427 -1.34,0 -2.427,1.087 -2.427,2.427 0,1.34 1.087,2.427 2.427,2.427 C -1.087,2.427 0,1.34 0,0" /></g><g
           transform="translate(157.3535,20.2319)"
           id="g344"><path
             id="path346"
             style="fill:#745cd4;fill-opacity:1;fill-rule:nonzero;stroke:none"
             d="m 0,0 0.296,-0.001 c 2.577,-0.014 4.697,2.065 4.71,4.62 L 5.411,81.546 C 5.425,84.1 3.327,86.202 0.75,86.215 L 0.454,86.217 C -2.123,86.23 -4.242,84.15 -4.256,81.596 L -4.661,4.669 C -4.674,2.115 -2.577,0.013 0,0" /></g><g
           transform="translate(181.0417,23.8569)"
           id="g348"><path
             id="path350"
             style="fill:#745cd4;fill-opacity:1;fill-rule:nonzero;stroke:none"
             d="m 0,0 0.296,-0.001 c 2.577,-0.014 4.696,2.065 4.71,4.62 L 5.411,81.546 C 5.425,84.1 3.327,86.202 0.75,86.215 L 0.454,86.217 C -2.123,86.23 -4.242,84.15 -4.256,81.596 L -4.661,4.669 C -4.674,2.115 -2.577,0.013 0,0" /></g><g
           transform="translate(160.5011,100.0548)"
           id="g352"><path
             id="path354"
             style="fill:#745cd4;fill-opacity:1;fill-rule:nonzero;stroke:none"
             d="M 0,0 -0.927,-0.643 C -2.466,-1.711 -4.598,-1.326 -5.666,0.213 L -19.748,20.51 c -1.068,1.539 -0.682,3.671 0.856,4.739 l 0.928,0.643 c 1.538,1.068 3.67,0.682 4.738,-0.856 L 0.857,4.738 C 1.924,3.2 1.539,1.067 0,0" /></g><g
           transform="translate(185.5344,103.0668)"
           id="g356"><path
             id="path358"
             style="fill:#745cd4;fill-opacity:1;fill-rule:nonzero;stroke:none"
             d="m 0,0 -0.447,-0.492 c -1.344,-1.481 -3.656,-1.593 -5.137,-0.249 l -21.034,19.094 c -1.481,1.344 -1.593,3.656 -0.248,5.137 l 0.447,0.492 c 1.344,1.481 3.656,1.593 5.137,0.248 L -0.248,5.137 C 1.233,3.793 1.344,1.481 0,0" /></g><g
           transform="translate(164.925,15.1455)"
           id="g360"><path
             id="path362"
             style="fill:#4a3e93;fill-opacity:1;fill-rule:nonzero;stroke:none"
             d="m 0,0 h -10.189 c -2.025,0 -3.681,1.656 -3.681,3.68 0,2.025 1.656,3.681 3.681,3.681 L 0,7.361 C 2.024,7.361 3.681,5.705 3.681,3.68 3.681,1.656 2.024,0 0,0" /></g><g
           transform="translate(188.925,20.1747)"
           id="g364"><path
             id="path366"
             style="fill:#4a3e93;fill-opacity:1;fill-rule:nonzero;stroke:none"
             d="m 0,0 h -10.189 c -2.025,0 -3.681,1.656 -3.681,3.681 0,2.024 1.656,3.68 3.681,3.68 L 0,7.361 c 2.024,0 3.681,-1.656 3.681,-3.68 C 3.681,1.656 2.024,0 0,0" /></g><g
           transform="translate(382.0165,242.0312)"
           id="g368"><path
             id="path370"
             style="fill:#ffd359;fill-opacity:1;fill-rule:nonzero;stroke:none"
             d="m 0,0 c 0,-10.382 -8.416,-18.798 -18.798,-18.798 -10.382,0 -18.798,8.416 -18.798,18.798 0,10.382 8.416,18.798 18.798,18.798 C -8.416,18.798 0,10.382 0,0" /></g><g
           transform="translate(166.1232,244.8168)"
           id="g372"><path
             id="path374"
             style="fill:#eae9c5;fill-opacity:1;fill-rule:nonzero;stroke:none"
             d="m 0,0 h -27.734 c -0.69,0 -1.254,0.564 -1.254,1.254 v 0 c 0,0.689 0.564,1.253 1.254,1.253 L 0,2.507 c 0.69,0 1.254,-0.564 1.254,-1.253 v 0 C 1.254,0.564 0.69,0 0,0" /></g><g
           transform="translate(160.7186,266.991)"
           id="g376"><path
             id="path378"
             style="fill:#4a3e93;fill-opacity:1;fill-rule:nonzero;stroke:none"
             d="m 0,0 c -3.307,2.08 -5.655,6.449 -4.729,10.686 -1.549,-0.606 -3.357,-0.609 -5.012,-0.69 -4.172,-0.203 -8.456,-0.275 -11.996,2.279 -4.12,2.972 -12.32,11.394 -6.33,16.26 3.464,2.815 6.979,2.091 10.211,-0.81 2.855,-2.561 3.453,-6.491 7.174,-8.363 2.967,-1.492 5.3,-0.666 8.384,-1.184 C 2.618,17.354 2.191,11.198 1.626,7.487 1.274,5.177 1.145,2.056 0,0" /></g><g
           transform="translate(74.0519,247.3243)"
           id="g380"><path
             id="path382"
             style="fill:#ff75fe;fill-opacity:1;fill-rule:nonzero;stroke:none"
             d="m 0,0 h -42.5 c -6.6,0 -12,5.4 -12,12 v 42.5 c 0,6.6 5.4,12 12,12 H 0 c 6.6,0 12,-5.4 12,-12 V 12 C 12,5.4 6.6,0 0,0" /></g><g
           id="g384"><g
             id="g386" /><g
             id="g398"><g
               style="opacity:0.55999798"
               id="g396"
               clip-path="url(#clipPath390)"><g
                 id="g394"
                 transform="translate(76.9596,313.4508)"><path
                   id="path392"
                   style="fill:#ff75fe;fill-opacity:1;fill-rule:nonzero;stroke:none"
                   d="m 0,0 c -11.175,-20.921 -20.583,-43.198 -39.958,-58.054 -3.432,-2.632 -6.982,-4.901 -10.626,-6.876 1.571,-0.758 3.323,-1.197 5.176,-1.197 h 42.5 c 6.6,0 12,5.4 12,12.001 v 42.5 C 9.092,-6.03 5.204,-1.31 0,0" /></g></g></g></g></g></g><text
       id="text402"
       style="font-variant:normal;font-weight:normal;font-stretch:normal;font-size:30.03739929px;font-family:'Myriad Pro';-inkscape-font-specification:BungeeLayers-Regular;writing-mode:lr-tb;fill:#ffffff;fill-opacity:1;fill-rule:nonzero;stroke:none"
       transform="matrix(1,0,0,-1,32.8848,267.9976)"><tspan
         id="tspan400"
         y="0"
         x="0">J</tspan></text>
<text
       id="text406"
       style="font-variant:normal;font-weight:normal;font-stretch:normal;font-size:21.20289993px;font-family:'Myriad Pro';-inkscape-font-specification:BungeeLayers-Regular;writing-mode:lr-tb;fill:#ffffff;fill-opacity:1;fill-rule:nonzero;stroke:none"
       transform="matrix(1,0,0,-1,43.998,267.9976)"><tspan
         id="tspan404"
         y="0"
         x="0">S</tspan></text>
<g
       id="g408"><g
         clip-path="url(#clipPath414)"
         id="g410"><g
           transform="translate(135.4544,320.8559)"
           id="g416"><path
             id="path418"
             style="fill:#70e5ff;fill-opacity:1;fill-rule:nonzero;stroke:none"
             d="m 0,0 h -35.241 c -5.473,0 -9.95,4.478 -9.95,9.95 v 35.241 c 0,5.473 4.477,9.951 9.95,9.951 H 0 c 5.473,0 9.95,-4.478 9.95,-9.951 V 9.95 C 9.95,4.478 5.473,0 0,0" /></g><g
           id="g420"><g
             id="g422" /><g
             id="g434"><g
               style="opacity:0.55999798"
               id="g432"
               clip-path="url(#clipPath426)"><g
                 id="g430"
                 transform="translate(137.8654,375.688)"><path
                   id="path428"
                   style="fill:#ff75fe;fill-opacity:1;fill-rule:nonzero;stroke:none"
                   d="m 0,0 c -9.266,-17.347 -17.067,-35.82 -33.133,-48.138 -2.846,-2.183 -5.789,-4.065 -8.811,-5.701 1.302,-0.63 2.755,-0.993 4.292,-0.993 h 35.241 c 5.473,0 9.95,4.478 9.95,9.95 V -9.641 C 7.539,-5 4.316,-1.086 0,0" /></g></g></g></g></g></g><text
       id="text438"
       style="font-variant:normal;font-weight:normal;font-stretch:normal;font-size:16.79829979px;font-family:'Myriad Pro';-inkscape-font-specification:BungeeLayers-Regular;writing-mode:lr-tb;fill:#ffffff;fill-opacity:1;fill-rule:nonzero;stroke:none"
       transform="matrix(1,0,0,-1,93.9893,342.792)"><tspan
         id="tspan436"
         y="0"
         x="0 10.952492 19.301247 32.807079">HTML</tspan></text>
<g
       id="g440"><g
         clip-path="url(#clipPath446)"
         id="g442"><g
           transform="translate(377.4521,221.5284)"
           id="g448"><path
             id="path450"
             style="fill:#70e5ff;fill-opacity:1;fill-rule:nonzero;stroke:none"
             d="M 0,0 H -31.738 C -36.667,0 -40.7,4.033 -40.7,8.962 V 40.7 c 0,4.929 4.033,8.962 8.962,8.962 H 0 c 4.929,0 8.961,-4.033 8.961,-8.962 V 8.962 C 8.961,4.033 4.929,0 0,0" /></g><g
           id="g452"><g
             id="g454" /><g
             id="g466"><g
               style="opacity:0.55999798"
               id="g464"
               clip-path="url(#clipPath458)"><g
                 id="g462"
                 transform="translate(379.6235,270.9109)"><path
                   id="path460"
                   style="fill:#ff75fe;fill-opacity:1;fill-rule:nonzero;stroke:none"
                   d="m 0,0 c -8.345,-15.623 -15.371,-32.26 -29.84,-43.354 -2.563,-1.965 -5.214,-3.66 -7.936,-5.135 1.174,-0.566 2.482,-0.893 3.866,-0.893 h 31.739 c 4.928,0 8.961,4.032 8.961,8.961 V -8.682 C 6.79,-4.503 3.887,-0.978 0,0" /></g></g></g></g></g></g><text
       id="text470"
       style="font-variant:normal;font-weight:normal;font-stretch:normal;font-size:17.93589973px;font-family:'Myriad Pro';-inkscape-font-specification:BungeeLayers-Regular;writing-mode:lr-tb;fill:#ffffff;fill-opacity:1;fill-rule:nonzero;stroke:none"
       transform="matrix(1,0,0,-1,345.6172,241.3594)"><tspan
         id="tspan468"
         y="0"
         x="0 10.689796 16.84181">&lt;/&gt;</tspan></text>
<g
       id="g472"><g
         clip-path="url(#clipPath478)"
         id="g474"><g
           transform="translate(211.6177,293.0206)"
           id="g480"><path
             id="path482"
             style="fill:#ffd359;fill-opacity:1;fill-rule:nonzero;stroke:none"
             d="m 0,0 h -29.295 c -4.549,0 -8.272,3.722 -8.272,8.272 v 29.295 c 0,4.549 3.723,8.271 8.272,8.271 H 0 c 4.549,0 8.272,-3.722 8.272,-8.271 V 8.272 C 8.272,3.722 4.549,0 0,0" /></g><g
           id="g484"><g
             id="g486" /><g
             id="g498"><g
               style="opacity:0.55999798"
               id="g496"
               clip-path="url(#clipPath490)"><g
                 id="g494"
                 transform="translate(213.622,338.6014)"><path
                   id="path492"
                   style="fill:#ff75fe;fill-opacity:1;fill-rule:nonzero;stroke:none"
                   d="m 0,0 c -7.703,-14.421 -14.188,-29.776 -27.543,-40.016 -2.366,-1.815 -4.812,-3.379 -7.325,-4.74 1.083,-0.523 2.291,-0.825 3.569,-0.825 h 29.295 c 4.549,0 8.271,3.722 8.271,8.272 V -8.014 C 6.267,-4.157 3.587,-0.903 0,0" /></g></g></g></g></g></g><text
       id="text502"
       style="font-variant:normal;font-weight:normal;font-stretch:normal;font-size:19.84300041px;font-family:'Myriad Pro';-inkscape-font-specification:BungeeLayers-Regular;writing-mode:lr-tb;fill:#ffffff;fill-opacity:1;fill-rule:nonzero;stroke:none"
       transform="matrix(1,0,0,-1,177.7979,308.9268)"><tspan
         id="tspan500"
         y="0"
         x="0 11.50894 21.291538">CSS</tspan></text>
<g
       id="g504"><g
         clip-path="url(#clipPath510)"
         id="g506"><g
           transform="translate(267.8501,240.4507)"
           id="g512"><path
             id="path514"
             style="fill:#ccc2fe;fill-opacity:1;fill-rule:nonzero;stroke:none"
             d="m 0,0 h -57.748 c -3.063,0 -5.569,2.506 -5.569,5.57 0,3.063 2.506,5.569 5.569,5.569 H 0 C 3.063,11.139 5.569,8.633 5.569,5.57 5.569,2.506 3.063,0 0,0" /></g><g
           transform="translate(418.2067,151.7574)"
           id="g516"><path
             id="path518"
             style="fill:#ccc2fe;fill-opacity:1;fill-rule:nonzero;stroke:none"
             d="m 0,0 h -57.747 c -3.064,0 -5.57,2.506 -5.57,5.569 0,3.064 2.506,5.57 5.57,5.57 H 0 c 3.063,0 5.569,-2.506 5.569,-5.57 C 5.569,2.506 3.063,0 0,0" /></g><g
           transform="translate(273.1711,259.7293)"
           id="g520"><path
             id="path522"
             style="fill:#ccc2fe;fill-opacity:1;fill-rule:nonzero;stroke:none"
             d="m 0,0 h -47.234 c -3.327,0 -6.048,2.721 -6.048,6.047 0,3.327 2.721,6.048 6.048,6.048 H 0 c 3.326,0 6.048,-2.721 6.048,-6.048 C 6.048,2.721 3.326,0 0,0" /></g><g
           transform="translate(423.8169,171.8739)"
           id="g524"><path
             id="path526"
             style="fill:#ccc2fe;fill-opacity:1;fill-rule:nonzero;stroke:none"
             d="m 0,0 h -47.234 c -3.327,0 -6.048,2.721 -6.048,6.048 0,3.326 2.721,6.047 6.048,6.047 H 0 c 3.326,0 6.047,-2.721 6.047,-6.047 C 6.047,2.721 3.326,0 0,0" /></g><g
           transform="translate(360.3115,196.1021)"
           id="g528"><path
             id="path530"
             style="fill:#8b77e8;fill-opacity:1;fill-rule:nonzero;stroke:none"
             d="m 0,0 h -18.186 c -3.249,0 -5.907,2.658 -5.907,5.907 0,3.249 2.658,5.907 5.907,5.907 H 0 c 3.249,0 5.907,-2.658 5.907,-5.907 C 5.907,2.658 3.249,0 0,0" /></g><g
           transform="translate(398.954,196.1021)"
           id="g532"><path
             id="path534"
             style="fill:#8b77e8;fill-opacity:1;fill-rule:nonzero;stroke:none"
             d="m 0,0 h -18.186 c -3.249,0 -5.907,2.658 -5.907,5.907 0,3.249 2.658,5.907 5.907,5.907 H 0 c 3.249,0 5.907,-2.658 5.907,-5.907 C 5.907,2.658 3.249,0 0,0" /></g><g
           transform="translate(421.9777,222.1816)"
           id="g536"><path
             id="path538"
             style="fill:#ccc2fe;fill-opacity:1;fill-rule:nonzero;stroke:none"
             d="m 0,0 h -18.186 c -3.249,0 -5.907,2.658 -5.907,5.907 0,3.249 2.658,5.907 5.907,5.907 H 0 c 3.249,0 5.907,-2.658 5.907,-5.907 C 5.907,2.658 3.249,0 0,0" /></g><g
           transform="translate(319.4985,284.6847)"
           id="g540"><path
             id="path542"
             style="fill:#ccc2fe;fill-opacity:1;fill-rule:nonzero;stroke:none"
             d="m 0,0 h -18.186 c -3.249,0 -5.907,2.658 -5.907,5.907 0,3.249 2.658,5.907 5.907,5.907 H 0 c 3.249,0 5.907,-2.658 5.907,-5.907 C 5.907,2.658 3.249,0 0,0" /></g><g
           transform="translate(280.0121,284.8691)"
           id="g544"><path
             id="path546"
             style="fill:#ccc2fe;fill-opacity:1;fill-rule:nonzero;stroke:none"
             d="m 0,0 h -18.186 c -3.249,0 -5.907,2.658 -5.907,5.907 v 0 c 0,3.249 2.658,5.907 5.907,5.907 H 0 c 3.249,0 5.907,-2.658 5.907,-5.907 v 0 C 5.907,2.658 3.249,0 0,0" /></g><g
           transform="translate(393.4073,86.01)"
           id="g548"><path
             id="path550"
             style="fill:#ccc2fe;fill-opacity:1;fill-rule:nonzero;stroke:none"
             d="m 0,0 h -18.186 c -3.249,0 -5.907,2.658 -5.907,5.907 0,3.249 2.658,5.907 5.907,5.907 H 0 c 3.249,0 5.907,-2.658 5.907,-5.907 C 5.907,2.658 3.249,0 0,0" /></g><g
           transform="translate(318.1492,259.7774)"
           id="g552"><path
             id="path554"
             style="fill:#8b77e8;fill-opacity:1;fill-rule:nonzero;stroke:none"
             d="m 0,0 h -18.186 c -3.249,0 -5.907,2.658 -5.907,5.907 v 0 c 0,3.249 2.658,5.907 5.907,5.907 H 0 c 3.249,0 5.907,-2.658 5.907,-5.907 v 0 C 5.907,2.658 3.249,0 0,0" /></g><g
           transform="translate(336.9831,303.634)"
           id="g556"><path
             id="path558"
             style="fill:#8b77e8;fill-opacity:1;fill-rule:nonzero;stroke:none"
             d="m 0,0 h -18.186 c -3.249,0 -5.907,2.658 -5.907,5.907 0,3.249 2.658,5.907 5.907,5.907 H 0 c 3.249,0 5.907,-2.658 5.907,-5.907 C 5.907,2.658 3.249,0 0,0" /></g><g
           transform="translate(413.954,130.9654)"
           id="g560"><path
             id="path562"
             style="fill:#8b77e8;fill-opacity:1;fill-rule:nonzero;stroke:none"
             d="m 0,0 h -18.186 c -3.249,0 -5.907,2.658 -5.907,5.907 v 0 c 0,3.249 2.658,5.907 5.907,5.907 H 0 c 3.249,0 5.907,-2.658 5.907,-5.907 v 0 C 5.907,2.658 3.249,0 0,0" /></g><g
           transform="translate(308.4422,53.2106)"
           id="g564"><path
             id="path566"
             style="fill:#fcddfc;fill-opacity:1;fill-rule:nonzero;stroke:none"
             d="m 0,0 h -26.513 c -4.21,0 -7.654,3.445 -7.654,7.655 v 27.717 c 0,4.211 3.444,7.655 7.654,7.655 H 0 c 4.21,0 7.655,-3.444 7.655,-7.655 V 7.655 C 7.655,3.445 4.21,0 0,0" /></g><g
           transform="translate(283.9359,332.9685)"
           id="g568"><path
             id="path570"
             style="fill:#ff75fe;fill-opacity:1;fill-rule:nonzero;stroke:none"
             d="m 0,0 h -29.732 c -4.618,0 -8.395,3.778 -8.395,8.395 v 29.732 c 0,4.618 3.777,8.395 8.395,8.395 H 0 c 4.617,0 8.395,-3.777 8.395,-8.395 V 8.395 C 8.395,3.778 4.617,0 0,0" /></g><g
           id="g572"><g
             id="g574" /><g
             id="g586"><g
               style="opacity:0.55999798"
               id="g584"
               clip-path="url(#clipPath578)"><g
                 id="g582"
                 transform="translate(285.9701,379.2296)"><path
                   id="path580"
                   style="fill:#ff75fe;fill-opacity:1;fill-rule:nonzero;stroke:none"
                   d="m 0,0 c -7.818,-14.636 -14.4,-30.221 -27.954,-40.614 -2.401,-1.841 -4.884,-3.429 -7.434,-4.81 1.099,-0.53 2.325,-0.837 3.621,-0.837 h 29.733 c 4.617,0 8.395,3.778 8.395,8.395 V -8.134 C 6.361,-4.219 3.641,-0.917 0,0" /></g></g></g></g></g></g><text
       id="text590"
       style="font-variant:normal;font-weight:normal;font-stretch:normal;font-size:18.2112999px;font-family:'Myriad Pro';-inkscape-font-specification:BungeeLayers-Regular;writing-mode:lr-tb;fill:#ffffff;fill-opacity:1;fill-rule:nonzero;stroke:none"
       transform="matrix(1,0,0,-1,249.5537,344.6152)"><tspan
         id="tspan588"
         y="0"
         x="0 9.6884117 21.56218">PHP</tspan></text>
<g
       id="g592"><g
         clip-path="url(#clipPath598)"
         id="g594"><g
           transform="translate(293.8662,200.3141)"
           id="g600"><path
             id="path602"
             style="fill:#ffd359;fill-opacity:1;fill-rule:nonzero;stroke:none"
             d="m 0,0 h -29.295 c -4.549,0 -8.272,3.722 -8.272,8.272 v 29.295 c 0,4.549 3.723,8.271 8.272,8.271 H 0 c 4.549,0 8.272,-3.722 8.272,-8.271 V 8.272 C 8.272,3.722 4.549,0 0,0" /></g><g
           id="g604"><g
             id="g606" /><g
             id="g618"><g
               style="opacity:0.55999798"
               id="g616"
               clip-path="url(#clipPath610)"><g
                 id="g614"
                 transform="translate(295.8704,245.8949)"><path
                   id="path612"
                   style="fill:#ff75fe;fill-opacity:1;fill-rule:nonzero;stroke:none"
                   d="m 0,0 c -7.703,-14.42 -14.188,-29.776 -27.543,-40.016 -2.366,-1.814 -4.812,-3.379 -7.325,-4.74 1.083,-0.523 2.291,-0.825 3.569,-0.825 h 29.295 c 4.549,0 8.271,3.723 8.271,8.272 V -8.014 C 6.267,-4.156 3.587,-0.903 0,0" /></g></g></g></g></g></g><text
       id="text622"
       style="font-variant:normal;font-weight:normal;font-stretch:normal;font-size:25.73399925px;font-family:'Myriad Pro';-inkscape-font-specification:BungeeLayers-Regular;writing-mode:lr-tb;fill:#ffffff;fill-opacity:1;fill-rule:nonzero;stroke:none"
       transform="matrix(1,0,0,-1,265.9102,213.7036)"><tspan
         id="tspan620"
         y="0"
         x="0">{</tspan></text>
<text
       id="text626"
       style="font-variant:normal;font-weight:normal;font-stretch:normal;font-size:25.73399925px;font-family:'Myriad Pro';-inkscape-font-specification:BungeeLayers-Regular;writing-mode:lr-tb;fill:#ffffff;fill-opacity:1;fill-rule:nonzero;stroke:none"
       transform="rotate(180,146.26415,106.85205)"><tspan
         id="tspan624"
         y="0"
         x="0">{</tspan></text>
<g
       id="g628"><g
         clip-path="url(#clipPath634)"
         id="g630"><g
           transform="translate(379.6682,18.1517)"
           id="g636"><path
             id="path638"
             style="fill:#8b77e8;fill-opacity:1;fill-rule:nonzero;stroke:none"
             d="m 0,0 h -205.951 c -0.414,0 -0.752,-0.338 -0.752,-0.752 0,-0.413 0.338,-0.751 0.752,-0.751 L 0,-1.503 c 0.413,0 0.752,0.338 0.752,0.751 C 0.752,-0.338 0.413,0 0,0" /></g><g
           transform="translate(332.4846,12.0789)"
           id="g640"><path
             id="path642"
             style="fill:#ccc2fe;fill-opacity:1;fill-rule:nonzero;stroke:none"
             d="m 0,0 h -62.372 c -0.228,0 -0.415,-0.187 -0.415,-0.415 v -0.673 c 0,-0.228 0.187,-0.415 0.415,-0.415 H 0 c 0.228,0 0.415,0.187 0.415,0.415 v 0.673 C 0.415,-0.187 0.228,0 0,0" /></g><g
           transform="translate(400.5004,12.0789)"
           id="g644"><path
             id="path646"
             style="fill:#ccc2fe;fill-opacity:1;fill-rule:nonzero;stroke:none"
             d="m 0,0 h -62.372 c -0.228,0 -0.415,-0.187 -0.415,-0.415 v -0.673 c 0,-0.228 0.187,-0.415 0.415,-0.415 H 0 c 0.228,0 0.415,0.187 0.415,0.415 v 0.673 C 0.415,-0.187 0.228,0 0,0" /></g><g
           transform="translate(262.6671,12.0789)"
           id="g648"><path
             id="path650"
             style="fill:#ccc2fe;fill-opacity:1;fill-rule:nonzero;stroke:none"
             d="m 0,0 h -62.372 c -0.228,0 -0.415,-0.187 -0.415,-0.415 v -0.673 c 0,-0.228 0.187,-0.415 0.415,-0.415 H 0 c 0.228,0 0.415,0.187 0.415,0.415 v 0.673 C 0.415,-0.187 0.228,0 0,0" /></g><g
           transform="translate(378.6084,7.8274)"
           id="g652"><path
             id="path654"
             style="fill:#ccc2fe;fill-opacity:1;fill-rule:nonzero;stroke:none"
             d="m 0,0 h -135.119 c -0.335,0 -0.609,-0.274 -0.609,-0.609 v -0.285 c 0,-0.335 0.274,-0.609 0.609,-0.609 H 0 c 0.335,0 0.609,0.274 0.609,0.609 v 0.285 C 0.609,-0.274 0.335,0 0,0" /></g><g
           transform="translate(340.9789,1.5031)"
           id="g656"><path
             id="path658"
             style="fill:#ccc2fe;fill-opacity:1;fill-rule:nonzero;stroke:none"
             d="m 0,0 h -135.119 c -0.335,0 -0.609,-0.274 -0.609,-0.609 v -0.285 c 0,-0.335 0.274,-0.609 0.609,-0.609 H 0 c 0.335,0 0.609,0.274 0.609,0.609 v 0.285 C 0.609,-0.274 0.335,0 0,0" /></g><g
           transform="translate(90.263,38.8243)"
           id="g660"><path
             id="path662"
             style="fill:none;stroke:#96fffa;stroke-width:2;stroke-linecap:butt;stroke-linejoin:miter;stroke-miterlimit:10;stroke-dasharray:none;stroke-opacity:1"
             d="M 0,0 H -23.845 V 67.624" /></g><g
           transform="translate(68.4966,107.4484)"
           id="g664"><path
             id="path666"
             style="fill:#96fffa;fill-opacity:1;fill-rule:nonzero;stroke:none"
             d="m 0,0 c 0,-1.45 -1.175,-2.625 -2.625,-2.625 -1.45,0 -2.625,1.175 -2.625,2.625 0,1.45 1.175,2.625 2.625,2.625 C -1.175,2.625 0,1.45 0,0" /></g><g
           transform="translate(92.888,38.8243)"
           id="g668"><path
             id="path670"
             style="fill:#96fffa;fill-opacity:1;fill-rule:nonzero;stroke:none"
             d="m 0,0 c 0,-1.45 -1.175,-2.625 -2.625,-2.625 -1.45,0 -2.625,1.175 -2.625,2.625 0,1.45 1.175,2.625 2.625,2.625 C -1.175,2.625 0,1.45 0,0" /></g><g
           transform="translate(432.0568,36.5131)"
           id="g672"><path
             id="path674"
             style="fill:none;stroke:#96fffa;stroke-width:2;stroke-linecap:butt;stroke-linejoin:miter;stroke-miterlimit:10;stroke-dasharray:none;stroke-opacity:1"
             d="M 0,0 H -23.845 V 67.624" /></g><g
           transform="translate(410.2904,105.1372)"
           id="g676"><path
             id="path678"
             style="fill:#96fffa;fill-opacity:1;fill-rule:nonzero;stroke:none"
             d="m 0,0 c 0,-1.45 -1.175,-2.625 -2.625,-2.625 -1.45,0 -2.625,1.175 -2.625,2.625 0,1.45 1.175,2.625 2.625,2.625 C -1.175,2.625 0,1.45 0,0" /></g><g
           transform="translate(434.6818,36.5131)"
           id="g680"><path
             id="path682"
             style="fill:#96fffa;fill-opacity:1;fill-rule:nonzero;stroke:none"
             d="m 0,0 c 0,-1.45 -1.175,-2.625 -2.625,-2.625 -1.45,0 -2.625,1.175 -2.625,2.625 0,1.45 1.175,2.625 2.625,2.625 C -1.175,2.625 0,1.45 0,0" /></g><g
           transform="translate(35.5099,154.3952)"
           id="g684"><path
             id="path686"
             style="fill:#96fffa;fill-opacity:1;fill-rule:nonzero;stroke:none"
             d="m 0,0 c 0,-1.45 -1.175,-2.625 -2.625,-2.625 -1.45,0 -2.625,1.175 -2.625,2.625 0,1.45 1.175,2.625 2.625,2.625 C -1.175,2.625 0,1.45 0,0" /></g><g
           transform="translate(10.2599,108.0193)"
           id="g688"><path
             id="path690"
             style="fill:#96fffa;fill-opacity:1;fill-rule:nonzero;stroke:none"
             d="m 0,0 c 0,-1.45 -1.175,-2.625 -2.625,-2.625 -1.45,0 -2.625,1.175 -2.625,2.625 0,1.45 1.175,2.625 2.625,2.625 C -1.175,2.625 0,1.45 0,0" /></g><g
           transform="translate(32.8849,153.0743)"
           id="g692"><path
             id="path694"
             style="fill:none;stroke:#96fffa;stroke-width:2;stroke-linecap:butt;stroke-linejoin:miter;stroke-miterlimit:10;stroke-dasharray:none;stroke-opacity:1"
             d="M 0,0 V -45.626 H -24.166" /></g><g
           transform="translate(30.5,268.7753)"
           id="g696"><path
             id="path698"
             style="fill:#96fffa;fill-opacity:1;fill-rule:nonzero;stroke:none"
             d="m 0,0 c 0,-1.45 -1.175,-2.625 -2.625,-2.625 -1.45,0 -2.625,1.175 -2.625,2.625 0,1.45 1.175,2.625 2.625,2.625 C -1.175,2.625 0,1.45 0,0" /></g><g
           transform="translate(5.25,222.3994)"
           id="g700"><path
             id="path702"
             style="fill:#96fffa;fill-opacity:1;fill-rule:nonzero;stroke:none"
             d="m 0,0 c 0,-1.45 -1.175,-2.625 -2.625,-2.625 -1.45,0 -2.625,1.175 -2.625,2.625 0,1.45 1.175,2.625 2.625,2.625 C -1.175,2.625 0,1.45 0,0" /></g><g
           transform="translate(27.875,267.4544)"
           id="g704"><path
             id="path706"
             style="fill:none;stroke:#96fffa;stroke-width:2;stroke-linecap:butt;stroke-linejoin:miter;stroke-miterlimit:10;stroke-dasharray:none;stroke-opacity:1"
             d="M 0,0 V -45.626 H -24.166" /></g><g
           transform="translate(256.3527,366.8453)"
           id="g708"><path
             id="path710"
             style="fill:#96fffa;fill-opacity:1;fill-rule:nonzero;stroke:none"
             d="M 0,0 C -1.45,0 -2.625,1.175 -2.625,2.625 -2.625,4.075 -1.45,5.25 0,5.25 1.45,5.25 2.625,4.075 2.625,2.625 2.625,1.175 1.45,0 0,0" /></g><g
           transform="translate(209.9768,392.0953)"
           id="g712"><path
             id="path714"
             style="fill:#96fffa;fill-opacity:1;fill-rule:nonzero;stroke:none"
             d="M 0,0 C -1.45,0 -2.625,1.175 -2.625,2.625 -2.625,4.075 -1.45,5.25 0,5.25 1.45,5.25 2.625,4.075 2.625,2.625 2.625,1.175 1.45,0 0,0" /></g><g
           transform="translate(255.0318,369.4703)"
           id="g716"><path
             id="path718"
             style="fill:none;stroke:#96fffa;stroke-width:2;stroke-linecap:butt;stroke-linejoin:miter;stroke-miterlimit:10;stroke-dasharray:none;stroke-opacity:1"
             d="M 0,0 H -45.626 V 24.166" /></g><g
           transform="translate(392.467,386.6974)"
           id="g720"><path
             id="path722"
             style="fill:#96fffa;fill-opacity:1;fill-rule:nonzero;stroke:none"
             d="m 0,0 c 0,-1.45 -1.175,-2.625 -2.625,-2.625 -1.45,0 -2.625,1.175 -2.625,2.625 0,1.45 1.175,2.625 2.625,2.625 C -1.175,2.625 0,1.45 0,0" /></g><g
           transform="translate(367.217,340.3215)"
           id="g724"><path
             id="path726"
             style="fill:#96fffa;fill-opacity:1;fill-rule:nonzero;stroke:none"
             d="m 0,0 c 0,-1.45 -1.175,-2.625 -2.625,-2.625 -1.45,0 -2.625,1.175 -2.625,2.625 0,1.45 1.175,2.625 2.625,2.625 C -1.175,2.625 0,1.45 0,0" /></g><g
           transform="translate(389.842,385.3765)"
           id="g728"><path
             id="path730"
             style="fill:none;stroke:#96fffa;stroke-width:2;stroke-linecap:butt;stroke-linejoin:miter;stroke-miterlimit:10;stroke-dasharray:none;stroke-opacity:1"
             d="M 0,0 V -45.626 H -24.166" /></g></g></g></g></svg>